<svg width="96" height="33" viewBox="0 0 96 33" fill="none" xmlns="http://www.w3.org/2000/svg">
<g clip-path="url(#clip0_1_138)">
<path fill-rule="evenodd" clip-rule="evenodd" d="M28.4953 10.8581C28.1576 9.89689 27.5497 9.07304 27.0094 8.24918C26.6042 3.85529 22.8896 1.38373 18.8373 0.765839C16.1358 0.353912 12.6913 0.697185 10.4626 2.4822C7.28828 2.41355 2.22292 2.89413 0.872154 6.05224L0.331848 7.35668L1.68261 7.21937C2.35799 7.15071 3.23599 7.28802 3.91137 7.49398C4.3166 7.63129 4.99198 7.7686 5.53229 8.04322C3.43861 10.3088 2.42553 13.6042 2.49307 18.0668C3.50614 2.41355 23.0247 4.67915 26.6042 12.9177C27.0094 13.055 27.4822 12.9863 27.8199 12.7117C28.4953 12.3685 28.7654 11.5446 28.4953 10.8581ZM17.4866 32.8275C12.8264 28.7769 6.41029 21.9114 10.1249 14.84C11.6107 11.8879 14.5149 9.89689 17.8242 9.89689C20.3232 9.89689 22.687 11.064 24.3079 12.9863C13.3667 -2.73554 -12.9056 20.813 17.4866 32.8275Z" fill="#EF542E"/>
<path d="M24.312 18.2728C23.2314 17.3117 21.7455 16.8311 19.922 16.8311C18.0985 16.8311 16.6126 17.3803 15.4645 18.4788C14.3839 19.5773 13.8436 20.9504 13.8436 22.5981C13.8436 24.3144 14.3163 25.6875 15.3294 26.6487C16.3425 27.6785 17.8283 28.2277 19.7869 28.2277C21.0702 28.2277 22.2183 27.9531 23.2314 27.4725C24.3795 26.9233 25.19 25.9621 25.7978 23.9025H23.6366C22.9612 25.2756 21.678 26.3054 19.7869 26.3054C17.4906 26.3054 16.2749 25.3442 16.0048 23.3533H26.0004V22.1861C26.0004 20.5384 25.3926 19.234 24.312 18.2728ZM16.0048 21.1563C16.1399 20.4698 16.4776 19.9892 17.0179 19.5086C17.6932 18.8907 18.6388 18.6161 19.8545 18.6161C21.0702 18.6161 21.9482 18.8221 22.6235 19.44C23.1638 19.9205 23.434 20.4011 23.5691 21.0877H16.0048V21.1563Z" fill="#033048"/>
<path d="M35.6552 17.037L31.8731 25.001L27.8208 17.037H25.4569L31.1302 28.0218H32.6835L37.9515 17.037H35.6552Z" fill="#033048"/>
<path d="M43.8266 16.8311C41.9355 16.8311 40.4497 17.3803 39.3016 18.4101C38.1534 19.44 37.6131 20.813 37.6131 22.5294C37.6131 24.1771 38.1534 25.5502 39.3016 26.6487C40.3822 27.6785 41.868 28.2277 43.7591 28.2277C45.6501 28.2277 47.136 27.6785 48.2841 26.6487C49.4323 25.6189 49.9726 24.2458 49.9726 22.5294C49.9726 20.8817 49.4323 19.5086 48.2841 18.4101C47.2035 17.3803 45.7177 16.8311 43.8266 16.8311ZM46.7983 25.2756C46.0554 25.9621 45.1098 26.3054 43.8266 26.3054C42.5434 26.3054 41.5303 25.9621 40.8549 25.2756C40.112 24.589 39.7743 23.6965 39.7743 22.5294C39.7743 21.3623 40.112 20.4698 40.8549 19.7832C41.5303 19.0967 42.5434 18.7534 43.8266 18.7534C45.1098 18.7534 46.1229 19.0967 46.7983 19.7832C47.4737 20.4698 47.8789 21.3623 47.8789 22.5294C47.8789 23.6279 47.5412 24.589 46.7983 25.2756Z" fill="#033048"/>
<path d="M53.0103 12.9178H50.9842V28.0218H53.0103V12.9178Z" fill="#033048"/>
<path d="M60.9822 16.8311C59.4964 16.8311 58.4158 17.243 57.065 18.0669V17.037H55.0389V31.4545H57.065V27.3352C58.4158 28.1591 59.4964 28.571 61.0498 28.571C62.9409 28.571 64.4942 28.0218 65.5748 26.8546C66.5879 25.8248 67.0607 24.3831 67.0607 22.6667C67.0607 20.9504 66.5204 19.5773 65.5073 18.4788C64.4267 17.3803 62.8733 16.8311 60.9822 16.8311ZM64.089 25.4816C63.4136 26.2368 62.4681 26.58 61.2524 26.58C58.6184 26.58 57.3352 25.2756 57.3352 22.5981C57.3352 21.4309 57.6729 20.5384 58.4158 19.7832C59.0912 19.0967 60.1042 18.6848 61.3199 18.6848C62.5356 18.6848 63.4136 19.028 64.089 19.7832C64.7644 20.5384 65.0345 21.4309 65.0345 22.5981C65.0345 23.9025 64.6968 24.795 64.089 25.4816Z" fill="#033048"/>
<path d="M77.6644 17.449C76.7864 16.7624 75.5031 16.4878 74.0848 16.4878C72.7341 16.4878 71.2482 16.8311 70.5728 17.449V12.9178H68.5467V28.0218H70.5728V21.7055C70.5728 20.7444 70.9105 19.9205 71.5184 19.3026C72.1262 18.6847 73.1393 18.4101 74.2199 18.4101C76.111 18.4101 77.2591 19.1653 77.2591 20.7444V28.0218H79.2853V20.5384C79.3528 19.1653 78.6774 18.1355 77.6644 17.449Z" fill="#033048"/>
<path fill-rule="evenodd" clip-rule="evenodd" d="M81.0389 15.252C81.0389 14.84 81.0389 13.7416 81.0389 13.3296C81.0389 12.9864 81.5792 12.6431 82.1195 12.6431C82.6598 12.6431 83.2001 13.055 83.2001 13.3296C83.2001 13.3296 83.2001 14.9087 83.2001 15.252C83.2001 15.5952 82.7273 15.9385 82.1195 15.9385C81.4441 15.9385 81.0389 15.6639 81.0389 15.252Z" fill="#033048"/>
<path d="M83.1326 16.6936H81.0389V28.0216H83.1326V16.6936Z" fill="#033048"/>
<path fill-rule="evenodd" clip-rule="evenodd" d="M93.4694 27.9531V21.019C93.4694 19.5086 92.5239 18.7534 90.5653 18.7534C89.4847 18.7534 88.6067 19.028 87.9988 19.6459C87.391 20.2638 87.1208 21.019 87.1208 21.9802V28.0218H85.0272V17.037H87.1208V17.7922C88.0664 17.1744 89.2145 16.8311 90.5653 16.8311C91.9836 16.8311 93.1317 17.1744 94.0097 17.7922C95.0228 18.4788 95.5631 19.5086 95.5631 20.813V27.9531H93.4694Z" fill="#033048"/>
</g>
<defs>
<clipPath id="clip0_1_138">
<rect width="95.2289" height="32.2676" fill="white" transform="translate(0.331848 0.559845)"/>
</clipPath>
</defs>
</svg>
